<svg xmlns="http://www.w3.org/2000/svg" xmlns:xlink="http://www.w3.org/1999/xlink" width="52" height="52" viewBox="0 0 52 52">
  <defs>
    <clipPath id="clip-apple-gallery">
      <rect width="52" height="52"/>
    </clipPath>
  </defs>
  <g id="apple-gallery" clip-path="url(#clip-apple-gallery)">
    <g id="Group_745" data-name="Group 745" transform="translate(-738.932 -3461.537)">
      <g id="Group_707" data-name="Group 707" transform="translate(738.932 3461.537)">
        <g id="Group_706" data-name="Group 706" transform="translate(0 0)">
          <rect id="Rectangle_189" data-name="Rectangle 189" width="52" height="52" rx="11" fill="#fff"/>
        </g>
      </g>
      <path id="Path_109" data-name="Path 109" d="M1013.984,730.823a.453.453,0,1,0-.888,0c.147.01.294.021.444.021S1013.836,730.833,1013.984,730.823Zm-1.143-8.079a5.977,5.977,0,0,1,.7.856,6.084,6.084,0,0,1,.7-.856l4.894-4.9c.1-.1.215-.17.318-.261a5.925,5.925,0,0,0-11.824,0c.1.091.219.161.319.261Z" transform="translate(-248.607 2755.704)" fill="#ffb74d"/>
      <path id="Path_110" data-name="Path 110" d="M1013.095,751.734a6.187,6.187,0,0,1,.444.544,6.3,6.3,0,0,1,.444-.544c-.148-.009-.294-.021-.444-.021S1013.242,751.725,1013.095,751.734Zm1.143,8.079a5.921,5.921,0,0,1-.7-.855,5.838,5.838,0,0,1-.7.855l-4.9,4.9c-.1.1-.215.17-.319.261a5.926,5.926,0,0,0,11.826,0c-.1-.091-.22-.162-.318-.261Z" transform="translate(-248.606 2736.814)" fill="#64b5f6"/>
      <path id="Path_111" data-name="Path 111" d="M991.837,745.145a5.851,5.851,0,0,1,.857-.7,6.054,6.054,0,0,1-.857-.7l-4.895-4.895c-.1-.1-.17-.215-.261-.32a5.926,5.926,0,0,0,0,11.826c.091-.1.161-.22.261-.318ZM999.916,744a6.11,6.11,0,0,1-.544.444,5.769,5.769,0,0,1,.544.444c.01-.148.021-.294.021-.444S999.926,744.149,999.916,744Z" transform="translate(-235.994 2743.093)" fill="#f48fb1"/>
      <path id="Path_112" data-name="Path 112" d="M1020.806,744.447c0,.15.012.3.021.444a6,6,0,0,1,.545-.444,6.529,6.529,0,0,1-.545-.444C1020.818,744.15,1020.806,744.3,1020.806,744.447Zm18.789,0a5.928,5.928,0,0,0-5.532-5.913c-.091.1-.162.219-.261.319l-4.9,4.895a5.97,5.97,0,0,1-.855.7,5.815,5.815,0,0,1,.855.7l4.9,4.894c.1.1.17.215.261.319A5.931,5.931,0,0,0,1039.6,744.447Z" transform="translate(-254.885 2743.092)" fill="#8bc34a"/>
      <path id="Path_113" data-name="Path 113" d="M1025.255,728.612a6.014,6.014,0,0,1-.1,1.093,5.944,5.944,0,0,1,1.093-.1h6.922c.136,0,.268.012.4.021a5.905,5.905,0,0,0-8.334-8.333c.01.134.021.266.021.4Zm-4.923,6.478c.018-.221.045-.437.083-.65a5.914,5.914,0,0,1-.648.083c.089.1.158.214.255.311S1020.23,735,1020.332,735.09Z" transform="translate(-254.389 2752.004)" fill="#c0ca33"/>
      <path id="Path_114" data-name="Path 114" d="M1019.617,727.776a5.931,5.931,0,0,0-.7.856,5.929,5.929,0,0,1,0,6.679.7.7,0,0,0,1.092.461,5.934,5.934,0,0,1,4.734-4.734,5.764,5.764,0,0,0,.107-1.094v-6.923c0-.135-.012-.268-.02-.4-.1.091-.22.161-.318.261Z" transform="translate(-253.985 2750.672)" fill="#f9a825"/>
      <path id="Path_115" data-name="Path 115" d="M1026.761,738.494a5.948,5.948,0,0,0-1.093.1,5.931,5.931,0,0,1-4.734,4.734,5.972,5.972,0,0,0-.083.65,6.032,6.032,0,0,0,.544.444,5.928,5.928,0,0,1,6.679,0,5.969,5.969,0,0,0,.856-.7l4.894-4.9c.1-.1.17-.215.262-.319-.135-.007-.267-.019-.4-.019Z" transform="translate(-254.906 2743.111)" fill="#689f38"/>
      <path id="Path_116" data-name="Path 116" d="M1025.744,738.694a5.93,5.93,0,0,0-4.734,4.734A5.93,5.93,0,0,0,1025.744,738.694Z" transform="translate(-254.981 2743.015)" fill="#827717"/>
      <path id="Path_117" data-name="Path 117" d="M998.694,757.151a5.955,5.955,0,0,1,.1-1.093,6.02,6.02,0,0,1-1.093.1h-6.922c-.136,0-.268-.011-.4-.02a5.905,5.905,0,0,0,8.333,8.334c-.009-.134-.021-.267-.021-.4Zm4.923-6.478a5.738,5.738,0,0,1-.083.648c.213-.038.431-.065.65-.083-.089-.1-.158-.215-.255-.31S1003.718,750.762,1003.617,750.673Z" transform="translate(-239.694 2737.309)" fill="#ba68c8"/>
      <path id="Path_118" data-name="Path 118" d="M1012.821,759.832a5.955,5.955,0,0,0,.7-.855,5.928,5.928,0,0,1,0-6.679,6.518,6.518,0,0,0-.444-.545c-.221.018-.437.044-.65.083a5.927,5.927,0,0,1-4.734,4.734,5.931,5.931,0,0,0-.106,1.1v6.922c0,.136.012.268.021.4.1-.091.219-.162.319-.261Z" transform="translate(-248.587 2736.795)" fill="#5c6bc0"/>
      <path id="Path_119" data-name="Path 119" d="M999.036,755.759a6.023,6.023,0,0,0,1.093-.1,5.93,5.93,0,0,1,4.734-4.734,5.811,5.811,0,0,0,.083-.65,6.12,6.12,0,0,0-.544-.444,5.924,5.924,0,0,1-6.679,0,6.025,6.025,0,0,0-.857.7l-4.9,4.893c-.1.1-.17.216-.261.32.135.007.267.019.4.019Z" transform="translate(-241.025 2737.712)" fill="#d81b60"/>
      <path id="Path_120" data-name="Path 120" d="M1007.787,756.651a5.932,5.932,0,0,0,4.734-4.734A5.932,5.932,0,0,0,1007.787,756.651Z" transform="translate(-248.683 2736.717)" fill="#880e4f"/>
      <path id="Path_121" data-name="Path 121" d="M1004.183,734.523a5.9,5.9,0,0,1-.65-.083,5.776,5.776,0,0,1,.083.65c.1-.089.215-.158.311-.256S1004.094,734.625,1004.183,734.523Zm-6.478-4.923a.712.712,0,1,0,.989-.989v-6.923c0-.135.012-.268.021-.4a5.9,5.9,0,0,0-8.333,8.333c.133-.009.266-.021.4-.021Z" transform="translate(-239.694 2752.004)" fill="#ff5252"/>
      <path id="Path_122" data-name="Path 122" d="M1007.587,729.943a5.981,5.981,0,0,0,.1,1.093,5.931,5.931,0,0,1,4.734,4.734,5.793,5.793,0,0,0,.65.083,5.974,5.974,0,0,0,.444-.544,5.928,5.928,0,0,1,0-6.679,6.032,6.032,0,0,0-.7-.857l-4.9-4.9c-.1-.1-.215-.17-.319-.261-.007.135-.019.267-.019.4Z" transform="translate(-248.587 2750.673)" fill="#ef6c00"/>
      <path id="Path_123" data-name="Path 123" d="M996.869,743.728a5.907,5.907,0,0,0,.857.7,5.927,5.927,0,0,1,6.678,0,5.9,5.9,0,0,0,.544-.444,5.738,5.738,0,0,0-.083-.65,5.933,5.933,0,0,1-4.734-4.734,5.9,5.9,0,0,0-1.095-.106h-6.922c-.136,0-.268.012-.4.021.091.1.161.219.261.319Z" transform="translate(-241.026 2743.111)" fill="#f44336"/>
      <path id="Path_124" data-name="Path 124" d="M1007.787,738.694a5.932,5.932,0,0,0,4.734,4.734A5.932,5.932,0,0,0,1007.787,738.694Z" transform="translate(-248.683 2743.015)" fill="#dd2c00"/>
      <path id="Path_125" data-name="Path 125" d="M1017.981,734.1a5.927,5.927,0,0,0,0,6.679A5.927,5.927,0,0,0,1017.981,734.1Z" transform="translate(-253.048 2745.204)" fill="#e65100"/>
      <path id="Path_126" data-name="Path 126" d="M1003.193,748.888a5.928,5.928,0,0,0,6.679,0A5.928,5.928,0,0,0,1003.193,748.888Z" transform="translate(-246.494 2738.65)" fill="#b71c1c"/>
      <path id="Path_127" data-name="Path 127" d="M1026.244,756.162a.712.712,0,1,0-.989.989v6.922c0,.136-.012.268-.021.4a5.906,5.906,0,0,0,8.334-8.334c-.134.01-.267.021-.4.021Zm-6.478-4.923c.221.018.436.044.648.083-.038-.213-.065-.43-.083-.648-.1.089-.215.158-.31.255S1019.855,751.138,1019.766,751.239Z" transform="translate(-254.389 2737.309)" fill="#00acc1"/>
      <path id="Path_128" data-name="Path 128" d="M1024.853,757.668a6,6,0,0,0-.1-1.093,5.931,5.931,0,0,1-4.734-4.734.7.7,0,0,0-1.093.461,5.926,5.926,0,0,1,0,6.679,5.873,5.873,0,0,0,.7.856l4.894,4.894c.1.1.215.17.319.262.007-.135.018-.268.018-.4Z" transform="translate(-253.987 2736.793)" fill="#0277bd"/>
      <path id="Path_129" data-name="Path 129" d="M1028.925,750.524a5.877,5.877,0,0,0-.855-.7,5.928,5.928,0,0,1-6.679,0,6.305,6.305,0,0,0-.545.444c.018.22.044.436.083.648a5.931,5.931,0,0,1,4.734,4.734,5.786,5.786,0,0,0,1.1.107h6.922c.136,0,.268-.012.4-.02-.091-.1-.162-.22-.261-.318Z" transform="translate(-254.903 2737.713)" fill="#00796b"/>
      <path id="Path_130" data-name="Path 130" d="M1025.744,756.651a5.93,5.93,0,0,0-4.734-4.734A5.93,5.93,0,0,0,1025.744,756.651Z" transform="translate(-254.981 2736.717)" fill="#006064"/>
      <path id="Path_131" data-name="Path 131" d="M1021.886,748.888a5.929,5.929,0,0,0,6.679,0A5.929,5.929,0,0,0,1021.886,748.888Z" transform="translate(-255.399 2738.65)" fill="#1b5e20"/>
      <path id="Path_132" data-name="Path 132" d="M1017.981,759.472a5.928,5.928,0,0,0,0-6.679A5.928,5.928,0,0,0,1017.981,759.472Z" transform="translate(-253.048 2736.299)" fill="#0d47a1"/>
    </g>
  </g>
</svg>
