<svg xmlns="http://www.w3.org/2000/svg" xmlns:xlink="http://www.w3.org/1999/xlink" width="52" height="52" viewBox="0 0 52 52">
  <defs>
    <linearGradient id="linear-gradient" x1="0.5" y1="-0.007" x2="0.5" y2="0.993" gradientUnits="objectBoundingBox">
      <stop offset="0" stop-color="#ff2968"/>
      <stop offset="1" stop-color="#fa5d3b"/>
    </linearGradient>
    <clipPath id="clip-apple-music">
      <rect width="52" height="52"/>
    </clipPath>
  </defs>
  <g id="apple-music" clip-path="url(#clip-apple-music)">
    <g id="Group_747" data-name="Group 747" transform="translate(-876.436 -3461.617)">
      <g id="Group_711" data-name="Group 711" transform="translate(876.435 3461.617)">
        <path id="Path_152" data-name="Path 152" d="M1299.615,714.767c-.008-.829-.013-1.167-.021-1.561a21.015,21.015,0,0,0-.3-3.4,11.742,11.742,0,0,0-1.038-3.24,11.854,11.854,0,0,0-4.868-4.867,11.734,11.734,0,0,0-3.239-1.04,21.056,21.056,0,0,0-3.4-.3c-.393-.007-.731-.013-1.561-.02-.788-.007-1.435-.01-1.911-.01H1263.97c-.477,0-1.124,0-1.911.01-.83.008-1.167.013-1.561.02a21.022,21.022,0,0,0-3.4.3,11.754,11.754,0,0,0-3.24,1.04,11.864,11.864,0,0,0-4.867,4.867,11.757,11.757,0,0,0-1.04,3.24,21.045,21.045,0,0,0-.3,3.4c-.007.394-.013.732-.021,1.561-.007.788-.01,1.435-.01,1.911v19.311c0,.476,0,1.123.01,1.91.008.83.013,1.168.021,1.561a21.056,21.056,0,0,0,.3,3.4,11.755,11.755,0,0,0,1.04,3.24,11.852,11.852,0,0,0,4.867,4.867,11.733,11.733,0,0,0,3.24,1.039,20.945,20.945,0,0,0,3.4.3c.394.007.731.013,1.561.02.787.008,1.434.01,1.911.01h19.308c.477,0,1.124,0,1.911-.01.83-.008,1.168-.013,1.561-.02a20.978,20.978,0,0,0,3.4-.3,11.714,11.714,0,0,0,3.239-1.039,11.841,11.841,0,0,0,4.868-4.867,11.74,11.74,0,0,0,1.038-3.24,21.026,21.026,0,0,0,.3-3.4c.008-.392.013-.73.021-1.561.007-.787.01-1.434.01-1.91V716.678C1299.625,716.2,1299.622,715.555,1299.615,714.767Z" transform="translate(-1247.625 -700.333)" fill="url(#linear-gradient)"/>
        <path id="Path_153" data-name="Path 153" d="M1273.721,719.43l20.223-4.261.433,25.639s.577,5.056-3.828,5.923c-3.728.733-7.583-.65-7.512-3.684s2.822-4.081,5.706-4.261c2.311-.145,3.178-.505,3.178-1.878s-.217-13.144-.217-13.144l-15.455,3.322-.072,17.839s.505,5.056-5.273,5.417c-5.053.316-6.066-2.527-6.139-4.044s1.245-3.918,5.489-4.333c2.961-.289,3.539-.651,3.539-2.095S1273.721,719.43,1273.721,719.43Z" transform="translate(-1255.76 -707.376)" fill="#fff"/>
      </g>
    </g>
  </g>
</svg>
