<svg xmlns="http://www.w3.org/2000/svg" xmlns:xlink="http://www.w3.org/1999/xlink" width="48" height="48" viewBox="0 0 48 48">
  <defs>
    <linearGradient id="linear-gradient" x1="0.5" y1="-7.739" x2="0.5" y2="1.885" gradientUnits="objectBoundingBox">
      <stop offset="0" stop-color="#04cff6"/>
      <stop offset="1" stop-color="#4574e9"/>
    </linearGradient>
    <clipPath id="clip-_3-number-gradient">
      <rect width="48" height="48"/>
    </clipPath>
  </defs>
  <g id="_3-number-gradient" data-name="3-number-gradient" clip-path="url(#clip-_3-number-gradient)">
    <g id="tv-black-24dp">
      <path id="Path_25" data-name="Path 25" d="M0,0H48V48H0Z" fill="none"/>
      <path id="Path_193" data-name="Path 193" d="M20.793-31.4,10.929-21.48l1.418,5.788h3.78a11.033,11.033,0,0,1,6,1.358,4.425,4.425,0,0,1,2.1,3.957,4.592,4.592,0,0,1-1.624,3.721A6.362,6.362,0,0,1,18.371-5.3a11.385,11.385,0,0,1-5.523-1.27,16.531,16.531,0,0,1-4.459-3.692L2.128-4.293A20.392,20.392,0,0,0,8.714.876a21.021,21.021,0,0,0,9.539,1.979,18.134,18.134,0,0,0,6.2-1,13.209,13.209,0,0,0,4.7-2.835A12.573,12.573,0,0,0,32.1-5.3a13.99,13.99,0,0,0,1.034-5.434,11.661,11.661,0,0,0-.945-4.932,10.51,10.51,0,0,0-2.481-3.426,11.191,11.191,0,0,0-3.544-2.156,21.4,21.4,0,0,0-4.135-1.122l10.455-9.982V-39.2H4.55v7.8Z" transform="translate(5.872 42.162)" fill="url(#linear-gradient)"/>
    </g>
  </g>
</svg>
