<svg xmlns="http://www.w3.org/2000/svg" xmlns:xlink="http://www.w3.org/1999/xlink" width="60" height="60" viewBox="0 0 60 60">
  <defs>
    <linearGradient id="linear-gradient" x1="-18.496" y1="0.291" x2="1" y2="0.289" gradientUnits="objectBoundingBox">
      <stop offset="0" stop-color="#04cff6"/>
      <stop offset="1" stop-color="#4574e9"/>
    </linearGradient>
    <clipPath id="clip-diamond-icon-gradient">
      <rect width="60" height="60"/>
    </clipPath>
  </defs>
  <g id="diamond-icon-gradient" clip-path="url(#clip-diamond-icon-gradient)">
    <g id="Group_1023" data-name="Group 1023" opacity="0.9">
      <path id="Path_184" data-name="Path 184" d="M0,0H60V60H0Z" fill="none"/>
      <path id="Path_185" data-name="Path 185" d="M11.964,3H47.6a2.5,2.5,0,0,1,2.023,1.03l9.557,13.14a1.25,1.25,0,0,1-.093,1.583L30.7,49.5a1.25,1.25,0,0,1-1.765.07Q28.908,49.552.477,18.752A1.25,1.25,0,0,1,.384,17.17L9.942,4.03A2.5,2.5,0,0,1,11.964,3Zm1.275,5-7,9.625,23.542,25.5,23.543-25.5L46.324,8H13.239Z" transform="translate(0.218 4.5)" fill="url(#linear-gradient)"/>
    </g>
  </g>
</svg>
