<svg xmlns="http://www.w3.org/2000/svg" xmlns:xlink="http://www.w3.org/1999/xlink" width="60" height="60" viewBox="0 0 60 60">
  <defs>
    <linearGradient id="linear-gradient" x1="-12.29" y1="0.301" x2="13.4" y2="0.3" gradientUnits="objectBoundingBox">
      <stop offset="0" stop-color="#04cff6"/>
      <stop offset="1" stop-color="#4574e9"/>
    </linearGradient>
    <clipPath id="clip-privacity-icon-gradient">
      <rect width="60" height="60"/>
    </clipPath>
  </defs>
  <g id="privacity-icon-gradient" clip-path="url(#clip-privacity-icon-gradient)">
    <g id="Group_1020" data-name="Group 1020" opacity="0.9">
      <path id="Path_178" data-name="Path 178" d="M0,0H60V60H0Z" fill="none"/>
      <path id="Path_179" data-name="Path 179" d="M25.5,1,46.042,5.565A2.5,2.5,0,0,1,48,8V32.972a15,15,0,0,1-6.68,12.48L25.5,56,9.68,45.452A14.994,14.994,0,0,1,3,32.975V8a2.5,2.5,0,0,1,1.957-2.44Zm0,5.122L8,10.01V32.972a10,10,0,0,0,4.453,8.32l13.047,8.7,13.047-8.7A9.995,9.995,0,0,0,43,32.975V10.01L25.5,6.125ZM36.63,19.055l3.538,3.535L24.257,38.5,13.65,27.892l3.535-3.535,7.07,7.07L36.63,19.052Z" transform="translate(4.5 1.5)" fill="url(#linear-gradient)"/>
    </g>
  </g>
</svg>
