<svg xmlns="http://www.w3.org/2000/svg" xmlns:xlink="http://www.w3.org/1999/xlink" width="60" height="60" viewBox="0 0 60 60">
  <defs>
    <linearGradient id="linear-gradient" x1="0.5" x2="0.5" y2="10.444" gradientUnits="objectBoundingBox">
      <stop offset="0" stop-color="#04cff6"/>
      <stop offset="1" stop-color="#4574e9"/>
    </linearGradient>
    <clipPath id="clip-secure-icon-gradient-vertical">
      <rect width="60" height="60"/>
    </clipPath>
  </defs>
  <g id="secure-icon-gradient-vertical" clip-path="url(#clip-secure-icon-gradient-vertical)">
    <g id="Group_1021" data-name="Group 1021" opacity="0.9">
      <path id="Path_180" data-name="Path 180" d="M0,0H60V60H0Z" fill="none"/>
      <path id="Path_181" data-name="Path 181" d="M10.5,18.5V16a15,15,0,1,1,30,0v2.5h5A2.5,2.5,0,0,1,48,21V51a2.5,2.5,0,0,1-2.5,2.5H5.5A2.5,2.5,0,0,1,3,51V21a2.5,2.5,0,0,1,2.5-2.5Zm32.5,5H8v25H43ZM23,37.83a5,5,0,1,1,5,0V43.5H23ZM15.5,18.5h20V16a10,10,0,1,0-20,0Z" transform="translate(4.5 1.5)" fill="url(#linear-gradient)"/>
    </g>
  </g>
</svg>
