<svg xmlns="http://www.w3.org/2000/svg" xmlns:xlink="http://www.w3.org/1999/xlink" width="942" height="266" viewBox="0 0 942 266">
  <defs>
    <linearGradient id="linear-gradient" x1="0.5" y1="-0.762" x2="0.5" y2="1.564" gradientUnits="objectBoundingBox">
      <stop offset="0" stop-color="#04cff6"/>
      <stop offset="1" stop-color="#4574e9"/>
    </linearGradient>
    <linearGradient id="linear-gradient-2" x1="0.5" y1="-0.383" x2="0.5" y2="1.458" xlink:href="#linear-gradient"/>
    <linearGradient id="linear-gradient-5" x1="0.5" y1="-0.774" x2="0.5" y2="1.587" xlink:href="#linear-gradient"/>
    <linearGradient id="linear-gradient-6" x1="0.5" y1="0" x2="0.5" y2="1" xlink:href="#linear-gradient"/>
    <clipPath id="clip-eRoom-logo-cast">
      <rect width="942" height="266"/>
    </clipPath>
  </defs>
  <g id="eRoom-logo-cast" clip-path="url(#clip-eRoom-logo-cast)">
    <g id="arrow_drop_down-black-24dp" transform="translate(0)">
      <path id="Path_77" data-name="Path 77" d="M0,0H942V266H0Z" fill="none"/>
      <path id="Path_77-2" data-name="Path 77" d="M0,0H581V266H0Z" transform="translate(358.881)" fill="none"/>
      <g id="Group_999" data-name="Group 999" transform="translate(395.1 32)">
        <path id="Path_157" data-name="Path 157" d="M-2353.5-263.9h-60.336a18.811,18.811,0,0,0,7.709,11.736q6.075,4.312,15.121,4.31a30.536,30.536,0,0,0,11.044-1.857,26.736,26.736,0,0,0,8.969-5.869l12.3,13.372q-11.268,12.925-32.912,12.925a51.955,51.955,0,0,1-23.867-5.275,38.589,38.589,0,0,1-16.011-14.633,40.373,40.373,0,0,1-5.633-21.244,40.914,40.914,0,0,1,5.56-21.171,38.977,38.977,0,0,1,15.269-14.707,44.767,44.767,0,0,1,21.718-5.275,44.42,44.42,0,0,1,21.2,5.051,36.86,36.86,0,0,1,14.9,14.486,43.281,43.281,0,0,1,5.411,21.913Q-2353.058-269.7-2353.5-263.9Zm-54.11-25.7a18.984,18.984,0,0,0-6.522,12.184h39.285a19.192,19.192,0,0,0-6.523-12.109,19.477,19.477,0,0,0-13.046-4.531A19.9,19.9,0,0,0-2407.613-289.606Z" transform="translate(2437.114 334.471)" fill="url(#linear-gradient)"/>
        <path id="Path_158" data-name="Path 158" d="M-2271.333-230.473l-20.012-28.969h-22.088v28.969h-24.016V-334.466h44.918q13.787,0,23.942,4.606a35.6,35.6,0,0,1,15.639,13.072q5.484,8.468,5.486,20.057t-5.558,19.982a35.263,35.263,0,0,1-15.789,12.85l23.274,33.426Zm-6.077-79.7q-5.637-4.681-16.456-4.68h-19.568v36.249h19.568q10.82,0,16.456-4.754t5.633-13.37Q-2271.777-305.494-2277.41-310.176Z" transform="translate(2436.923 334.466)" fill="url(#linear-gradient-2)"/>
        <path id="Path_159" data-name="Path 159" d="M-2216.217-234.563a39.137,39.137,0,0,1-15.641-14.633,40.371,40.371,0,0,1-5.633-21.244,40.382,40.382,0,0,1,5.633-21.245,39.151,39.151,0,0,1,15.641-14.633,47.751,47.751,0,0,1,22.608-5.275,47.321,47.321,0,0,1,22.533,5.275,39.3,39.3,0,0,1,15.566,14.633,40.394,40.394,0,0,1,5.633,21.245,40.382,40.382,0,0,1-5.633,21.244,39.282,39.282,0,0,1-15.566,14.633,47.3,47.3,0,0,1-22.533,5.275A47.728,47.728,0,0,1-2216.217-234.563Zm37.209-19.758q5.706-6.016,5.707-16.118t-5.707-16.119a19.239,19.239,0,0,0-14.6-6.016,19.479,19.479,0,0,0-14.677,6.016q-5.782,6.016-5.782,16.119t5.782,16.118a19.482,19.482,0,0,0,14.677,6.016A19.243,19.243,0,0,0-2179.008-254.322Z" transform="translate(2436.73 334.471)" fill="url(#linear-gradient)"/>
        <path id="Path_160" data-name="Path 160" d="M-2120.564-234.563A39.138,39.138,0,0,1-2136.2-249.2a40.373,40.373,0,0,1-5.633-21.244,40.384,40.384,0,0,1,5.633-21.245,39.152,39.152,0,0,1,15.641-14.633,47.75,47.75,0,0,1,22.607-5.275,47.322,47.322,0,0,1,22.533,5.275,39.3,39.3,0,0,1,15.566,14.633,40.4,40.4,0,0,1,5.633,21.245,40.384,40.384,0,0,1-5.633,21.244,39.285,39.285,0,0,1-15.566,14.633,47.3,47.3,0,0,1-22.533,5.275A47.727,47.727,0,0,1-2120.564-234.563Zm37.209-19.758q5.706-6.016,5.707-16.118t-5.707-16.119a19.24,19.24,0,0,0-14.6-6.016,19.477,19.477,0,0,0-14.677,6.016q-5.782,6.016-5.782,16.119t5.782,16.118a19.48,19.48,0,0,0,14.677,6.016A19.243,19.243,0,0,0-2083.354-254.322Z" transform="translate(2436.547 334.471)" fill="url(#linear-gradient)"/>
        <path id="Path_161" data-name="Path 161" d="M-1914.308-302.752q8.82,8.84,8.821,26.518v45.757h-23.127v-42.191q0-9.506-3.928-14.187t-11.193-4.68q-8.155,0-12.9,5.274t-4.744,15.672v40.112H-1984.5v-42.191q0-18.865-15.121-18.867-8.005,0-12.748,5.274t-4.745,15.672v40.112h-23.126V-310.4h22.089v9.211a29.2,29.2,0,0,1,10.9-7.725,36.6,36.6,0,0,1,14.158-2.676,34.232,34.232,0,0,1,15.27,3.343,27.1,27.1,0,0,1,10.97,9.731,32.751,32.751,0,0,1,12.379-9.657,39.009,39.009,0,0,1,16.38-3.417Q-1923.13-311.593-1914.308-302.752Z" transform="translate(2436.352 334.471)" fill="url(#linear-gradient-5)"/>
      </g>
      <path id="Union_3" data-name="Union 3" d="M262.784,216V180.146a2.786,2.786,0,0,0-2.772-2.8H64.1a2.787,2.787,0,0,0-2.772,2.8V216H0V151.675A33.946,33.946,0,0,1,33.74,117.6H289.522a33.944,33.944,0,0,1,33.748,34.07V216ZM39.147,93.049V24.4A24.277,24.277,0,0,1,63.313,0H259.957a24.274,24.274,0,0,1,24.166,24.4V93.049Z" transform="translate(16 16)" fill="url(#linear-gradient-6)"/>
      <g id="Group_1007" data-name="Group 1007" transform="translate(1106.114 -1.748)">
        <g id="Group_1003" data-name="Group 1003">
          <path id="Path_171" data-name="Path 171" d="M-699.974,230.6a21.47,21.47,0,0,1-8.4-8.059,22.332,22.332,0,0,1-3.042-11.6,22.175,22.175,0,0,1,3.073-11.6,21.726,21.726,0,0,1,8.435-8.059,24.73,24.73,0,0,1,12.009-2.915,25.044,25.044,0,0,1,9.846,1.881,20.1,20.1,0,0,1,7.525,5.455l-5.268,4.956a15.364,15.364,0,0,0-11.727-5.143,16.447,16.447,0,0,0-8.089,1.975,14.228,14.228,0,0,0-5.582,5.487,15.756,15.756,0,0,0-2.006,7.964A15.747,15.747,0,0,0-701.2,218.9a14.215,14.215,0,0,0,5.582,5.487,16.437,16.437,0,0,0,8.089,1.976,15.276,15.276,0,0,0,11.727-5.205l5.268,5.016a20.04,20.04,0,0,1-7.557,5.456,25.285,25.285,0,0,1-9.877,1.882A24.708,24.708,0,0,1-699.974,230.6Z" fill="#0b1142"/>
          <path id="Path_172" data-name="Path 172" d="M-622.621,222.729h-21.948l-4.328,10.159h-8.4l19.755-43.9h8.026l19.817,43.9h-8.528Zm-2.7-6.4-8.278-19.19-8.215,19.19Z" fill="#0b1142"/>
          <path id="Path_173" data-name="Path 173" d="M-587.785,232.072a20.422,20.422,0,0,1-7.494-3.825l2.822-6.332a22.176,22.176,0,0,0,6.616,3.479,24.026,24.026,0,0,0,7.87,1.349q4.893,0,7.306-1.568a4.749,4.749,0,0,0,2.415-4.139,4.006,4.006,0,0,0-1.349-3.1,9.46,9.46,0,0,0-3.417-1.913q-2.07-.69-5.644-1.567a65.721,65.721,0,0,1-8.121-2.384,13.333,13.333,0,0,1-5.331-3.731,10.046,10.046,0,0,1-2.226-6.867,11.719,11.719,0,0,1,1.975-6.616,13.386,13.386,0,0,1,5.957-4.735,24.166,24.166,0,0,1,9.753-1.755,31.491,31.491,0,0,1,7.9,1,21.837,21.837,0,0,1,6.711,2.884l-2.571,6.333a25.391,25.391,0,0,0-6.021-2.57,22.5,22.5,0,0,0-6.082-.879q-4.83,0-7.18,1.632a5.026,5.026,0,0,0-2.352,4.326,3.9,3.9,0,0,0,1.348,3.072,9.724,9.724,0,0,0,3.418,1.882q2.068.69,5.644,1.568a59.394,59.394,0,0,1,8.026,2.352,13.739,13.739,0,0,1,5.362,3.73,9.846,9.846,0,0,1,2.227,6.773,11.566,11.566,0,0,1-1.976,6.585,13.438,13.438,0,0,1-5.989,4.7,24.375,24.375,0,0,1-9.783,1.756A33.475,33.475,0,0,1-587.785,232.072Z" fill="#0b1142"/>
          <path id="Path_174" data-name="Path 174" d="M-531.313,195.889h-14.549v-6.9h37.25v6.9h-14.549v37h-8.152Z" fill="#0b1142"/>
        </g>
        <g id="Group_1006" data-name="Group 1006" transform="translate(-0.209 -0.134)">
          <g id="Group_1004" data-name="Group 1004" transform="translate(-467.905 203.306)">
            <path id="Path_175" data-name="Path 175" d="M-467.9,220.841v8.865c20.309,1.632,25.834,13.168,26.244,15.889h10.947C-431.327,239.217-443.025,220.841-467.9,220.841Z" transform="translate(467.905 -203.019)" fill="#0b1142"/>
            <path id="Path_176" data-name="Path 176" d="M-467.9,203.019v9.9c32.485,0,45.172,23.943,46.557,32.675h10.415C-412.3,235.738-424.779,203.019-467.9,203.019Z" transform="translate(467.905 -203.019)" fill="#0b1142"/>
          </g>
          <g id="Group_1005" data-name="Group 1005" transform="translate(-467.905 167.882)">
            <path id="Path_177" data-name="Path 177" d="M-369.646,167.882h-89.518a8.751,8.751,0,0,0-8.741,8.762V194.8c60.594-.093,65.887,51.083,65.887,51.083h32.372a8.751,8.751,0,0,0,8.741-8.762V176.644A8.751,8.751,0,0,0-369.646,167.882Zm-3.138,66.093H-392.4c-5.994-20-24.009-46.134-63.629-50.464v-3.721h83.243Z" transform="translate(467.905 -167.882)" fill="#0b1142"/>
          </g>
        </g>
      </g>
    </g>
  </g>
</svg>
