<svg id="Amazon_prime" data-name="Amazon prime" xmlns="http://www.w3.org/2000/svg" xmlns:xlink="http://www.w3.org/1999/xlink" width="256" height="78.577" viewBox="0 0 256 78.577">
  <defs>
    <clipPath id="clip-path">
      <path id="Clip_55" data-name="Clip 55" d="M0,0H119.271V37.185H0Z" fill="none"/>
    </clipPath>
  </defs>
  <path id="Fill_50" data-name="Fill 50" d="M0,.975A1.12,1.12,0,0,1,1.132,0a1.8,1.8,0,0,1,.945.3A125.649,125.649,0,0,0,68.154,19.194,123.329,123.329,0,0,0,118.561,8.075c2.471-1.125,4.54,1.753,2.123,3.686-14.62,11.621-35.816,17.8-54.067,17.8A94.009,94.009,0,0,1,.573,2.414,1.846,1.846,0,0,1,0,1.376Z" transform="translate(62.112 49.013)" fill="#02aae0"/>
  <path id="Fill_52" data-name="Fill 52" d="M.843,4.352C5.166,1.089,10.914,0,15.68,0c4.457,0,8.058.954,8.825,1.974C26.115,4.1,24.09,18.859,16.244,25.9c-1.2,1.09-2.343.5-1.814-.919C16.194,20.258,20.143,9.66,18.271,7.09S5.91,5.862,1.205,6.47C.476,6.563.061,6.265,0,5.82V5.58A1.968,1.968,0,0,1,.843,4.352" transform="translate(169.894 47.468)" fill="#02aae0"/>
  <g id="Group_56" data-name="Group 56" transform="translate(136.729 0)">
    <path id="Clip_55-2" data-name="Clip 55" d="M0,0H119.271V37.185H0Z" transform="translate(0)" fill="none"/>
    <g id="Group_56-2" data-name="Group 56" transform="translate(0)" clip-path="url(#clip-path)">
      <path id="Fill_54" data-name="Fill 54" d="M107.014,37.185c-3.825,0-6.856-1.175-9.01-3.493s-3.246-5.6-3.246-9.749c0-4.118,1.092-7.381,3.246-9.7s5.186-3.493,9.01-3.493,6.857,1.175,9.011,3.493,3.246,5.582,3.246,9.7c0,4.15-1.092,7.43-3.246,9.749S110.839,37.185,107.014,37.185Zm0-20.963a4.281,4.281,0,0,0-3.815,1.93,10.679,10.679,0,0,0-1.272,5.79,10.8,10.8,0,0,0,1.272,5.827,4.718,4.718,0,0,0,7.63,0,10.8,10.8,0,0,0,1.272-5.827,10.678,10.678,0,0,0-1.272-5.79A4.282,4.282,0,0,0,107.014,16.222ZM50.366,36.989a9.312,9.312,0,0,1-5.474-1.637,10.4,10.4,0,0,1-3.561-4.545A17.136,17.136,0,0,1,40.1,24.089c0-4.021.961-7.285,2.857-9.7a9.177,9.177,0,0,1,7.559-3.64,10.493,10.493,0,0,1,6.636,2.2V1.514a1.272,1.272,0,0,1,.291-.953,1.334,1.334,0,0,1,.921-.268H63.01a1.315,1.315,0,0,1,.944.268,1.347,1.347,0,0,1,.266.953V35.23a1.359,1.359,0,0,1-.266.928,1.24,1.24,0,0,1-.944.293H59.134a1.445,1.445,0,0,1-.9-.244,1.466,1.466,0,0,1-.46-.83l-.291-1.125A10.264,10.264,0,0,1,50.366,36.989Zm1.985-20.864a4.275,4.275,0,0,0-3.826,1.929,10.873,10.873,0,0,0-1.259,5.839A10.279,10.279,0,0,0,48.6,29.709a4.674,4.674,0,0,0,4.093,1.905,8.164,8.164,0,0,0,4.457-1.369v-12.9A9.346,9.346,0,0,0,52.352,16.125ZM81.48,36.906c-3.9,0-6.942-1.1-9.03-3.26S69.3,28.341,69.3,24.3c0-4.132,1.084-7.42,3.223-9.773s5.156-3.548,8.959-3.548a10.243,10.243,0,0,1,6.9,2.156,7.264,7.264,0,0,1,2.488,5.751,6.2,6.2,0,0,1-2.676,5.44c-1.778,1.225-4.434,1.846-7.9,1.846a18.568,18.568,0,0,1-4.694-.525,6.558,6.558,0,0,0,1.921,4.6,7.564,7.564,0,0,0,4.956,1.388,19.408,19.408,0,0,0,2.585-.169,31.915,31.915,0,0,0,3.484-.739,1.724,1.724,0,0,1,.284-.072,1.39,1.39,0,0,1,.235-.025c.536,0,.808.371.808,1.1v2.205a2.05,2.05,0,0,1-.211,1.078,1.759,1.759,0,0,1-.831.55A20.33,20.33,0,0,1,81.48,36.906Zm-.519-21.084a4.689,4.689,0,0,0-3.593,1.414,7.484,7.484,0,0,0-1.67,4.239,21.271,21.271,0,0,0,4.221.384,6.408,6.408,0,0,0,3.507-.743,2.568,2.568,0,0,0,1.092-2.273C84.518,16.839,83.322,15.822,80.962,15.822ZM34.236,36.451H29.585a1.255,1.255,0,0,1-.921-.293,1.283,1.283,0,0,1-.291-.928V12.7a1.273,1.273,0,0,1,.291-.953,1.334,1.334,0,0,1,.921-.268h4.651a1.321,1.321,0,0,1,.944.268,1.345,1.345,0,0,1,.267.953V35.23a1.354,1.354,0,0,1-.267.928A1.227,1.227,0,0,1,34.236,36.451Zm-19.655,0H10.367a2.251,2.251,0,0,1-.8-.122,1.277,1.277,0,0,1-.533-.391,2.917,2.917,0,0,1-.412-.757L.338,13.438c-.084-.226-.165-.456-.241-.684a1.7,1.7,0,0,1-.1-.538c0-.486.326-.733.969-.733H5.812a1.812,1.812,0,0,1,1.14.294,1.884,1.884,0,0,1,.557.977l4.99,17.3,5.086-17.3a1.876,1.876,0,0,1,.557-.977,1.807,1.807,0,0,1,1.139-.294h4.7c.643,0,.969.247.969.733a1.709,1.709,0,0,1-.1.538c-.06.184-.139.408-.242.684L16.326,35.182a2.909,2.909,0,0,1-.412.757,1.29,1.29,0,0,1-.509.391A2.214,2.214,0,0,1,14.581,36.451ZM31.91,7.623A4.214,4.214,0,0,1,28.954,6.6a3.618,3.618,0,0,1-1.113-2.786,3.617,3.617,0,0,1,1.113-2.785A4.21,4.21,0,0,1,31.91,0a4.213,4.213,0,0,1,2.956,1.026,3.617,3.617,0,0,1,1.113,2.785A3.618,3.618,0,0,1,34.866,6.6,4.217,4.217,0,0,1,31.91,7.623Z" transform="translate(0 0)" fill="#23303e"/>
    </g>
  </g>
  <path id="Fill_57" data-name="Fill 57" d="M5.886,46.538H1.218A1.338,1.338,0,0,1,.3,46.27a1.267,1.267,0,0,1-.3-.955V12.707a1.26,1.26,0,0,1,.3-.951,1.306,1.306,0,0,1,.923-.268h3.5a1.265,1.265,0,0,1,1.361,1.076l.34,1.268a10.859,10.859,0,0,1,3.525-2.249,11.294,11.294,0,0,1,4.211-.828,9.053,9.053,0,0,1,7.464,3.47c1.825,2.3,2.751,5.463,2.751,9.388A17.234,17.234,0,0,1,23.014,30.7a11.107,11.107,0,0,1-3.7,4.667,9.109,9.109,0,0,1-5.354,1.64,11.329,11.329,0,0,1-3.791-.634A9.2,9.2,0,0,1,7.1,34.612v10.7a1.366,1.366,0,0,1-.265.955A1.346,1.346,0,0,1,5.886,46.538Zm5.986-30.407A9.294,9.294,0,0,0,7.1,17.45V30.307a8.923,8.923,0,0,0,4.768,1.323,4.564,4.564,0,0,0,4.013-1.857c.857-1.235,1.291-3.209,1.291-5.867,0-2.691-.426-4.682-1.268-5.916A4.55,4.55,0,0,0,11.873,16.132ZM116.183,37.2a15.835,15.835,0,0,1-5.332-.829,10.232,10.232,0,0,1-3.933-2.495c-2.146-2.206-3.234-5.413-3.234-9.534,0-4.216,1.113-7.57,3.308-9.969s5.287-3.621,9.191-3.621a10.545,10.545,0,0,1,7.081,2.2,7.394,7.394,0,0,1,2.554,5.867,6.32,6.32,0,0,1-2.747,5.55c-1.822,1.249-4.547,1.883-8.1,1.883a19.138,19.138,0,0,1-4.817-.537,6.662,6.662,0,0,0,1.972,4.693,7.773,7.773,0,0,0,5.082,1.417,20.118,20.118,0,0,0,2.653-.173,32.648,32.648,0,0,0,3.576-.754,1.8,1.8,0,0,1,.29-.074,1.574,1.574,0,0,1,.242-.024c.55,0,.829.378.829,1.125v2.249a2.081,2.081,0,0,1-.218,1.1,1.793,1.793,0,0,1-.853.559A20.917,20.917,0,0,1,116.183,37.2Zm-.533-21.508a4.824,4.824,0,0,0-3.686,1.442,7.608,7.608,0,0,0-1.712,4.325,21.911,21.911,0,0,0,4.328.391,6.6,6.6,0,0,0,3.6-.758,2.612,2.612,0,0,0,1.119-2.319,2.867,2.867,0,0,0-.912-2.311A4.177,4.177,0,0,0,115.65,15.691ZM35.022,36.468h-4.67a1.262,1.262,0,0,1-.922-.293,1.284,1.284,0,0,1-.3-.931V12.71a1.267,1.267,0,0,1,.3-.955,1.336,1.336,0,0,1,.922-.268h3.5a1.266,1.266,0,0,1,1.364,1.075L35.85,15.2a14,14,0,0,1,3.673-3.057,7.862,7.862,0,0,1,3.651-.9h.7a1.427,1.427,0,0,1,.971.268,1.251,1.251,0,0,1,.291.952V16.57a1.341,1.341,0,0,1-.266.931,1.247,1.247,0,0,1-.947.293c-.227,0-.514-.016-.878-.05-.406-.033-.813-.049-1.211-.049h-.149a14.454,14.454,0,0,0-2.726.317,13.465,13.465,0,0,0-2.722.808V35.244a1.381,1.381,0,0,1-.266.931A1.274,1.274,0,0,1,35.022,36.468Zm63.359,0H93.711a1.235,1.235,0,0,1-.923-.293,1.263,1.263,0,0,1-.3-.927V19.555a3.662,3.662,0,0,0-.741-2.493,2.842,2.842,0,0,0-2.226-.831,12.311,12.311,0,0,0-5.3,1.269V35.247a1.359,1.359,0,0,1-.265.927,1.242,1.242,0,0,1-.951.293h-4.67a1.049,1.049,0,0,1-1.212-1.22V19.555c0-2.206-1-3.324-2.969-3.324A11.865,11.865,0,0,0,68.8,17.549v17.7a1.359,1.359,0,0,1-.265.927,1.253,1.253,0,0,1-.947.293H62.916a1.248,1.248,0,0,1-.922-.293,1.275,1.275,0,0,1-.292-.927V12.708a1.261,1.261,0,0,1,.292-.952,1.32,1.32,0,0,1,.922-.267h3.505a1.266,1.266,0,0,1,1.361,1.075l.389,1.318a20.857,20.857,0,0,1,4.645-2.418,12.991,12.991,0,0,1,4.251-.713h.008c2.9,0,4.982,1.054,6.179,3.132a19.748,19.748,0,0,1,4.668-2.393,14.09,14.09,0,0,1,4.505-.738h.017a7.1,7.1,0,0,1,5.28,1.909A7.325,7.325,0,0,1,99.6,17.99V35.247a1.354,1.354,0,0,1-.266.927A1.243,1.243,0,0,1,98.38,36.467Zm-43.917,0H49.794a1.051,1.051,0,0,1-1.218-1.223V12.709a1.271,1.271,0,0,1,.291-.953,1.349,1.349,0,0,1,.927-.271h4.669a1.313,1.313,0,0,1,.947.271,1.329,1.329,0,0,1,.271.953V35.244a1.345,1.345,0,0,1-.271.931A1.253,1.253,0,0,1,54.463,36.467ZM52.126,7.626A4.244,4.244,0,0,1,49.158,6.6a3.582,3.582,0,0,1-1.114-2.79,3.6,3.6,0,0,1,1.114-2.784,4.8,4.8,0,0,1,5.936,0A3.6,3.6,0,0,1,56.213,3.81,3.626,3.626,0,0,1,55.094,6.6,4.244,4.244,0,0,1,52.126,7.626Z" transform="translate(0 0.001)" fill="#02aae0"/>
</svg>
