<?xml version="1.0" encoding="utf-8"?>
<!-- Generator: Adobe Illustrator 24.0.0, SVG Export Plug-In . SVG Version: 6.00 Build 0)  -->
<svg version="1.1"
	 id="svg4" inkscape:version="0.92.2 (5c3e80d, 2017-08-06)" sodipodi:docname="Disney+ logo.svg" xmlns:cc="http://creativecommons.org/ns#" xmlns:dc="http://purl.org/dc/elements/1.1/" xmlns:inkscape="http://www.inkscape.org/namespaces/inkscape" xmlns:rdf="http://www.w3.org/1999/02/22-rdf-syntax-ns#" xmlns:sodipodi="http://sodipodi.sourceforge.net/DTD/sodipodi-0.dtd" xmlns:svg="http://www.w3.org/2000/svg"
	 xmlns="http://www.w3.org/2000/svg" xmlns:xlink="http://www.w3.org/1999/xlink" x="0px" y="0px" viewBox="0 0 720 340"
	 enable-background="new 0 0 720 340" xml:space="preserve">
<sodipodi:namedview  bordercolor="#000000" borderlayer="true" borderopacity="0.39215686" gridtolerance="1" guidetolerance="1" id="namedview6" inkscape:current-layer="svg4" inkscape:cx="17.80306" inkscape:cy="29.632707" inkscape:pagecheckerboard="false" inkscape:pageopacity="0" inkscape:pageshadow="2" inkscape:showpageshadow="false" inkscape:window-height="705" inkscape:window-maximized="1" inkscape:window-width="1366" inkscape:window-x="-8" inkscape:window-y="-8" inkscape:zoom="4.9301579" objecttolerance="1" pagecolor="#ffffff" showgrid="false">
	</sodipodi:namedview>
<g>
	<path fill="#101C50" d="M332.3,192.1c0.2,0,0.2,0,0.3,0c2.6,0.3,5.1,0.8,7,1.7c1.8,0.8,2.8,1.8,3.8,3.6c1.5,2.7,1.5,6.5,0.2,9.3
		c-1,2.1-3.1,3.9-5.1,4.9c-2,1-4.1,1.5-6.4,1.7c-4,0.4-8.4-0.4-12-2.1c-2.1-1-4.8-2.9-6.1-5.2c-1-1.7-0.9-3.9,0.2-5.5
		c1.9-2.6,5.9-3.1,9-3c2.3,0.1,6.5,0.8,8.7,1.6c0.6,0.2,2.9,1.1,3.3,1.5c0.3,0.3,0.5,0.7,0.3,1.1c-0.5,1.5-4.2,2.4-5.3,2.5
		c-2.9,0.4-4.4-0.7-7.7-1.9c-0.8-0.3-1.9-0.7-2.7-0.8c-1.5-0.1-3.3,0.3-3.6,1.9c-0.1,0.8,0.8,1.6,1.6,2c1.8,0.8,3.2,1,4.9,1.1
		c5.1,0.1,10.9-0.8,15.1-3.7c0.6-0.4,1.1-1,1.1-1.8c0-1.5-2.7-2.5-2.7-2.5c-2.8-1.2-8-1.8-10.7-2c-2.8-0.2-7.3-0.6-8.3-0.8
		c-1.1-0.2-2.3-0.4-3.2-0.8c-1-0.4-1.9-1.4-2.2-2.5c-0.5-1.9,0.1-4.3,1.2-5.8c2.8-4,9.4-5.6,14.3-6.2c4.7-0.6,12.4-0.6,17.1,1.9
		c0.7,0.4,1.1,0.7,0.9,1.5c-0.3,1.4-1.4,2.4-2.7,2.8c-1.4,0.4-4.2,0.6-5.5,0.7c-5.6,0.3-12.4,0.1-17.8,1.6c-0.4,0.1-1.1,0.3-1.4,0.6
		c-0.8,0.9,1.6,1.2,2.1,1.3c0.2,0,0.2,0,0.3,0.1L332.3,192.1 M298.9,167c0,0,0.9-1.4,1.7-2.4c1.4-1.9,3.9-4.5,5.8-6.1
		c0.6-0.5,1.3-1.1,1.3-1.1s-1.1,0.1-1.7,0.2c-1.4,0.3-3.6,1.7-4.6,2.6c-1.7,1.5-3.7,3.9-2.8,6.1C298.7,166.6,298.9,167,298.9,167
		 M308.6,169.6c2.8-0.2,5.3-1,7.7-2.3c2.4-1.3,5.8-3.9,5.5-6.9c-0.1-1-0.7-1.7-1.6-2.1c-1.1-0.5-1.6-0.4-2.9,0c-1,0.3-1.4,0.5-2.3,1
		c-2.7,1.6-6.5,4.9-8.6,7.6c-0.5,0.6-1,1.3-1.3,1.8c-0.2,0.3-0.4,0.6-0.4,0.6C304.7,169.7,307.5,169.7,308.6,169.6 M301.6,174.7
		c-0.3,0.3-0.6,1-0.9,1.5c-0.2,0.3-0.5,0.6-0.7,0.8c-0.7,0.5-1.3,0.6-2-0.1c-1-0.9-1.5-2.2-1.6-3.5c0-0.6,0.1-1.2,0-1.7
		c-0.2-0.8-1-1.6-1.4-2.4c-0.5-0.9-0.9-2.5-1-3.5c-0.2-3.2,1.5-6.1,3.7-8.4c2.2-2.3,5-4.3,8.2-5.6c2.9-1.2,7.2-2.1,10.5-1
		c1.1,0.4,2.5,1.3,3.3,2.2c0.2,0.2,0.3,0.4,0.4,0.5c0.1,0.1,0.5,0.1,0.8,0.2c1,0.2,2.5,1,3.1,1.5c1.2,1,1.9,2.1,2.2,3.5
		c0.6,2.9-1.1,6.1-3,8.1c-3.3,3.4-6.5,5.7-10.8,7.4c-1.8,0.7-4.7,1.4-6.8,1.2c-0.7-0.1-1.3-0.2-2-0.3c-0.3,0-1.5-0.3-1.6-0.4
		C301.8,174.8,301.6,174.7,301.6,174.7 M305.3,181.2c0.1,0,0.3,0.1,0.5,0.1c1.5,0.6,2.1,1.9,2.4,3.4c0.8,3.5,1.2,11.2,1.3,14.2
		c0.1,2.3,0.2,4.5,0.3,6.7c0.1,1.9,0.2,4.4-0.2,6.2c-0.1,0.6-0.6,1.4-1.2,1.8c-0.7,0.4-2.3,0.5-3.2,0.3c-2.2-0.4-2.9-1.8-3.2-4
		c-0.7-5.1-0.4-15.1,0.1-19.3c0.1-1.4,0.7-5.9,1.4-7.7C303.9,182.3,304.4,181.1,305.3,181.2 M239.6,189.7c0,0-3.2,0.2-5.4,0.5
		c-2.8,0.3-8.1,1.2-11.2,2.3c-0.9,0.3-2.8,1.1-2.9,2c-0.2,1,0.4,1.7,1.1,2.5c0.4,0.5,2.6,2.6,3.2,3.1c2.6,2.2,7.8,5.5,11.7,7.1
		c1.3,0.6,3.5,1.3,3.5,1.3s-0.2-6.3-0.1-12.4C239.5,192.9,239.6,189.7,239.6,189.7 M298.6,192.2c0.2,1.7-0.2,4.9-0.3,5.3
		c-0.1,1-0.9,3.2-1,3.5c-0.6,1.4-1.2,2.5-1.8,3.6c-1.1,1.9-3.6,4.9-5.1,6.2c-5.5,4.8-14.1,7.5-21.5,8.4c-5,0.6-10.7,0.5-16-0.5
		c-1.8-0.3-4.5-1-4.5-1s0,1.1-0.1,1.8c0,0.3-0.3,1.3-0.5,1.6c-0.4,0.8-1,1.2-1.9,1.4c-1.1,0.2-2.3,0.3-3.3-0.2
		c-1.7-0.7-2.3-2.3-2.6-4.1c-0.2-1.5-0.5-4-0.5-4s-1.3-0.6-2.3-1.1c-3.2-1.6-6.3-3.5-9-5.5c-0.7-0.6-3.9-3.2-4.6-3.9
		c-2-1.9-3.7-3.7-5.1-6.1c-1-1.9-1.4-3.5-0.6-5.5c1.1-2.8,5-4.8,7.8-6c2-0.9,8.2-2.9,10.7-3.3c1.2-0.2,3.1-0.5,3.2-0.6
		c0,0,0.1-0.1,0.1-0.1c0.1-0.1,0.2-2.8,0.1-3.8c0-1,0.7-7.4,1-8.8c0.1-0.7,0.7-3.6,1.3-4.3c0.4-0.5,1-0.5,1.6-0.1
		c2.9,1.8,3.8,8.2,4.1,11.4c0.1,2,0.2,4.9,0.2,4.9s3.4-0.1,5.4,0c2,0,4.2,0.4,6.3,0.7c2.7,0.4,7.9,1.6,10.9,3.1
		c2.5,1.3,4.8,3.4,5.5,5.6c0.7,2,0.6,3.5-0.5,5.3c-1.2,2.1-3.4,3.6-5.7,3.8c-0.7,0-3.2-0.3-4-0.9c-0.3-0.2-0.3-0.7-0.1-1
		c0.1-0.1,1.3-0.7,2-1.1c0.4-0.2,0.6-0.4,0.9-0.7c0.6-0.5,1.1-1.1,1.1-1.7c-0.1-0.9-1-1.4-1.9-1.7c-4.1-1.6-12.3-3-16.2-3.2
		c-1.5-0.1-3.7-0.2-3.7-0.2l0.5,21.8c0,0,1.8,0.3,3.2,0.6c0.8,0.1,4.3,0.4,5.2,0.5c7,0.2,14.9-0.4,21.4-3.5c2.8-1.3,5.4-3,7.4-5.2
		c2.6-3,4-7.1,3.6-11.3c-0.4-4.6-3.7-10.2-6.3-13.5c-6.9-8.9-18.7-16.2-29.1-20.5c-10.6-4.4-21.1-6.9-32.4-7.3
		c-2.9-0.1-9.2,0-12.4,0.9c-0.5,0.1-0.9,0.3-1.3,0.4c-0.3,0.1-0.9,0.3-1,0.4c-0.1,0.1-0.2,0.2-0.2,0.2s0.2,0.1,0.4,0.2
		c0.3,0.1,1.8,0.2,2.5,0.4c0.7,0.1,1.4,0.5,1.6,1c0.3,0.5,0.3,0.8,0,1.2c-0.7,0.9-3.5,0.7-4.7,0.5c-1.3-0.2-2.8-0.6-3.1-1.7
		c-0.3-1.3,0.3-2.5,0.9-3.7c1.3-2.3,3.2-3.5,6-4.3c3.9-1.1,8.9-1.8,12.6-2c8.4-0.3,16.4,1.2,24.5,3.6c4.7,1.4,10.8,3.8,15.3,5.9
		c3.2,1.5,8.3,4.4,11.1,6.3c0.9,0.6,6.1,4.4,7,5.1c1.7,1.4,3.9,3.4,5.5,5c3.1,3.1,7,7.8,8.9,11.6c0.5,0.9,0.8,1.8,1.4,2.8
		c0.2,0.4,1.1,2.5,1.2,3.1c0.1,0.6,0.3,1.5,0.4,1.5C298.2,189.7,298.6,191.5,298.6,192.2 M404.4,187.4c-3.9,0.9-14.3,1.4-14.3,1.4
		l-1.3,4.1c0,0,5.2-0.4,8.9,0c0,0,1.2-0.1,1.4,1.4c0,1.4-0.1,3-0.1,3s-0.1,0.9-1.4,1.2c-1.4,0.2-11.2,0.6-11.2,0.6l-1.6,5.3
		c0,0-0.6,1.2,0.7,0.9c1.2-0.3,11.4-2.2,12.8-2c1.4,0.4,3,2.3,2.5,4c-0.5,2.1-10.7,8.6-16.9,8.2c0,0-3.3,0.2-6-4.2
		c-2.6-4.2,1-12.1,1-12.1s-1.6-3.7-0.4-5c0,0,0.7-0.6,2.7-0.8l2.5-5.2c0,0-2.8,0.2-4.5-1.9c-1.6-2-1.7-2.9-0.5-3.4
		c1.3-0.6,13.1-2.8,21.3-2.5c0,0,2.8-0.3,5.3,4.6C405.2,184.9,406.4,186.9,404.4,187.4 M373.7,207.3c-1,2.5-3.8,5.1-7.2,3.5
		c-3.4-1.6-8.8-12.7-8.8-12.7s-2-4.1-2.4-4c0,0-0.4-0.8-0.7,3.7c-0.3,4.5,0.1,13.2-1.7,14.6c-1.7,1.4-3.7,0.8-4.8-0.8
		c-1-1.6-1.4-5.4-0.8-12c0.6-6.6,2.2-13.7,4.1-15.9c2-2.2,3.5-0.6,4.2,0c0,0,2.6,2.4,7,9.4l0.8,1.3c0,0,3.9,6.6,4.4,6.6
		c0,0,0.3,0.3,0.6,0.1c0.4-0.1,0.2-2.2,0.2-2.2s-0.8-7.2-4.4-19.4c0,0-0.5-1.5-0.2-2.9c0.4-1.4,1.8-0.8,1.8-0.8s5.6,2.8,8.3,11.9
		C376.6,196.6,374.8,204.8,373.7,207.3 M433.7,201.8c-2.5,4.4-9.7,13.7-19.2,11.5c-3.1,7.6-5.8,15.3-7.3,26.9c0,0-0.3,2.2-2.2,1.5
		c-1.8-0.6-4.9-3.7-5.5-8c-0.7-5.6,1.8-15,6.9-25.8c-1.5-2.4-2.5-5.8-1.6-10.7c0,0,1.3-9.1,10.4-17.3c0,0,1.1-0.9,1.7-0.7
		c0.7,0.3,0.4,3.3-0.2,4.7c-0.6,1.4-4.6,8.5-4.6,8.5s-2.5,4.8-1.8,8.5c4.8-7.4,15.7-22.2,22.4-17.5c2.3,1.6,3.3,5.1,3.3,8.9
		C436,195.6,435.2,199.2,433.7,201.8 M431.7,190.2c0,0-0.4-2.9-3.2,0.3c-2.5,2.7-6.9,7.8-10.5,14.7c3.7-0.4,7.4-2.5,8.5-3.5
		C428.2,200.2,432.4,195.9,431.7,190.2 M486.1,189.5h-17.4c-0.3-5.9-1.1-11.7-2.2-17.6c-0.1-0.6-0.7-1.1-1.3-1.1h-4
		c-0.3,0-0.7,0.2-0.9,0.4c-0.2,0.3-0.3,0.6-0.2,1c1.1,5.8,1.9,11.4,2.2,17.3h-16.8c-0.8,0-1.4,0.6-1.4,1.4v3.6
		c0,0.8,0.6,1.4,1.4,1.4h17c0,0.9,0,1.7,0,2.4c0,5.2-0.2,9.5-0.8,14.4c0,0.4,0.1,0.7,0.3,1c0.2,0.3,0.6,0.4,1,0.4h3.7
		c0.7,0,1.3-0.5,1.4-1.3c0.5-4.9,0.7-9.2,0.7-14.6c0-0.7,0-1.6,0-2.4h17.2c0.8,0,1.4-0.6,1.4-1.4v-3.6
		C487.5,190.1,486.9,189.5,486.1,189.5"/>
	
		<linearGradient id="SVGID_1_" gradientUnits="userSpaceOnUse" x1="467.7557" y1="203.3162" x2="257.1276" y2="231.7942" gradientTransform="matrix(1 0 0 -1 0 340.5518)">
		<stop  offset="0" style="stop-color:#101C50"/>
		<stop  offset="0.236" style="stop-color:#0D267A"/>
		<stop  offset="0.4973" style="stop-color:#085AA4"/>
		<stop  offset="0.6549" style="stop-color:#058BBF"/>
		<stop  offset="1" style="stop-color:#B1FFFF"/>
	</linearGradient>
	<path fill="url(#SVGID_1_)" d="M252.9,140.9c-0.2,0.4-0.3,0.8-0.2,1.2c0.1,0.4,0.5,0.7,0.9,0.9l3.1,1.1c0.2,0.1,0.4,0.1,0.6,0.1
		c0.6,0,1.1-0.3,1.4-0.8c10.2-15,24.1-27.6,40.1-36.2c16.5-8.9,35.2-13.7,54.1-13.7c22.8,0,44.8,6.7,63.6,19.4
		c18.4,12.4,32.6,29.7,41.2,50.1c0.3,0.6,0.9,1,1.5,1h3.7c0.4,0,0.8-0.2,1.1-0.6c0.2-0.4,0.3-0.8,0.1-1.2
		c-8.9-21.9-23.9-40.5-43.5-53.9c-20-13.7-43.5-21-67.8-21C312.6,87.4,275.3,107.4,252.9,140.9"/>
</g>
</svg>
