<?xml version="1.0" encoding="utf-8"?>
<!-- Generator: Adobe Illustrator 24.0.0, SVG Export Plug-In . SVG Version: 6.00 Build 0)  -->
<svg version="1.1" id="Camada_1" xmlns="http://www.w3.org/2000/svg" xmlns:xlink="http://www.w3.org/1999/xlink" x="0px" y="0px"
	 viewBox="0 0 595.3 262.8" enable-background="new 0 0 595.3 262.8" xml:space="preserve">
<path fill-rule="evenodd" clip-rule="evenodd" d="M432.8,140.5c8.1,0,14.7-6.6,14.7-14.7c0-8.1-6.6-14.7-14.7-14.7
	c-8.1,0-14.7,6.6-14.7,14.7C418.2,134,424.7,140.5,432.8,140.5L432.8,140.5z"/>
<path fill-rule="evenodd" clip-rule="evenodd" d="M272.7,140.5c8.1,0,14.7-6.6,14.7-14.7c0-8.1-6.6-14.7-14.7-14.7
	c-8.1,0-14.7,6.6-14.7,14.7C258,134,264.5,140.5,272.7,140.5L272.7,140.5z"/>
<path fill-rule="evenodd" clip-rule="evenodd" d="M272.9,87.6c-16.7,0-30.9,10.7-36.1,25.7c0.2-1.5,0.3-3.1,0.3-4.8
	c0-5.5-3.2-11.6-7.7-14.8c-4.2-3.1-8.5-4.9-13.7-4.9h-33.1v75.4h31c6.1,0,11.4-2.3,16.6-6c4.8-3.5,7.9-9.6,7.9-15.5
	c0-0.3,0-0.5,0-0.8c6,13.2,19.3,22.3,34.8,22.3c21.1,0,38.2-17.1,38.2-38.3C311.1,104.7,294,87.6,272.9,87.6L272.9,87.6z M201.9,105
	h8.1c3.9,0,8.1,0.7,8.1,5.7c0.3,4.5-2.4,7.2-7.9,7.2l-8.3,0V105L201.9,105z M216.9,145.6c-1.7,1.4-4,1.3-6,1.3h-9V133h8.2
	c5,0,9.2,1.3,9.4,7.1C219.5,142,218.4,144.5,216.9,145.6L216.9,145.6z M235.1,131c-1.5-2-3.6-3.8-6.8-5.6c3.5-1.8,5.8-4.1,7.1-7
	c-0.5,2.4-0.7,4.9-0.7,7.5C234.8,127.6,234.9,129.3,235.1,131L235.1,131z M272.7,145.7c-11,0-19.9-8.9-19.9-19.9
	c0-11,8.9-19.9,19.9-19.9c11,0,19.9,8.9,19.9,19.9C292.6,136.8,283.7,145.7,272.7,145.7L272.7,145.7z"/>
<polygon fill-rule="evenodd" clip-rule="evenodd" points="158.9,116.3 143.3,116.3 143.3,88.5 124,88.5 124,164.2 143.2,164.2 
	143.2,134.7 158.8,134.7 158.8,164.2 178.3,164.2 178.3,88.5 158.9,88.5 158.9,116.3 "/>
<path fill-rule="evenodd" clip-rule="evenodd" d="M466.9,88.9c-2.2,0-3.9,1.5-3.9,3.7s1.7,3.7,3.9,3.7c2.2,0,3.9-1.5,3.9-3.7
	C470.7,90.4,469,88.9,466.9,88.9L466.9,88.9z M466.9,95.3c-1.5,0-2.7-1.1-2.7-2.7c0-1.5,1.1-2.7,2.7-2.7c1.5,0,2.7,1.2,2.7,2.7
	C469.6,94.2,468.4,95.3,466.9,95.3L466.9,95.3z"/>
<path fill-rule="evenodd" clip-rule="evenodd" d="M467.5,92.9c0.5,0,1-0.3,1-1.1c0-1-0.6-1.2-1.7-1.2h-1.5v4h1V93h0.2l0.9,1.7h1.2
	L467.5,92.9L467.5,92.9z M466.9,92.3h-0.6v-0.9h0.5c0.3,0,0.6,0,0.6,0.4C467.4,92.2,467.2,92.3,466.9,92.3L466.9,92.3z"/>
<path fill-rule="evenodd" clip-rule="evenodd" d="M433.1,87.5c-19.5,0-35.6,14.7-37.9,33.7H386h-8h-23.8v15.1h21.6
	c-3.5,6.2-9.9,10.3-17.3,10.3c-11.1,0-20-9.3-20-20.8c0-11.5,9-20.8,20-20.8c6.9,0,13,3.6,16.6,9.2h20.6c-5-15.5-19.7-26.7-37-26.7
	c-21.4,0-38.8,17.2-38.8,38.3c0,21.2,17.4,38.3,38.8,38.3c18,0,33.1-12.1,37.5-28.5c4.3,16.4,19.2,28.5,36.9,28.5
	c21.1,0,38.2-17.2,38.2-38.3C471.2,104.7,454.2,87.5,433.1,87.5z M432.8,145.9c-11.1,0-20-9-20-20c0-11.1,9-20,20-20
	c11.1,0,20,9,20,20C452.9,136.9,443.9,145.9,432.8,145.9z"/>
<g id="Marcador_1_-_azul">
</g>
</svg>
